<?xml version="1.0" encoding="utf-8"?>
<!-- Generator: Adobe Illustrator 24.2.3, SVG Export Plug-In . SVG Version: 6.00 Build 0)  -->
<svg version="1.1" id="Layer_1" xmlns="http://www.w3.org/2000/svg" xmlns:xlink="http://www.w3.org/1999/xlink" x="0px" y="0px"
	 viewBox="0 0 480.44 67.3" style="enable-background:new 0 0 480.44 67.3;" xml:space="preserve">
<style type="text/css">
	.st0{fill:#A04E9E;}
	.st1{fill:#72297E;}
</style>
<g>
	<path class="st0" d="M5.98,66.11h-4.7C0.46,66.11,0,65.83,0,64.82V2.95c0-0.92,0.37-1.29,1.29-1.29h4.7V66.11z M7.73,60.86h15.93
		c15.47,0,25.87-12.52,25.87-26.98c0-14.55-10.4-26.98-25.87-26.98H7.73V1.66h16.02c18.14,0,31.76,13.9,31.76,32.23
		S41.89,66.11,23.75,66.11H7.73V60.86z"/>
	<path class="st0" d="M105.15,41.16L91.52,10.59h-0.09L67.31,64.82c-0.46,1.01-0.83,1.29-1.66,1.29h-4.33
		c-0.74,0-1.01-0.55-0.74-1.29L90.32,1.1C90.6,0.46,90.88,0,91.34,0h0.28c0.37,0,0.64,0.46,0.92,1.1l18.6,40.05H105.15z
		 M112.05,42.91l10.22,21.91c0.37,0.74,0,1.29-0.83,1.29h-4.24c-0.83,0-1.1-0.28-1.66-1.29L108,48.15H76.7l2.39-5.25H112.05z"/>
	<path class="st0" d="M159.93,67.3c-18.05-0.55-32.13-15.65-32.13-33.42c0-17.77,14.18-32.87,32.13-33.42V5.8
		c-14.73,0.55-26.06,14.09-26.06,28.08c0,14,11.42,27.53,26.06,28.08V67.3z"/>
	<path class="st1" d="M213.24,66.11h-4.69c-0.83,0-1.29-0.28-1.29-1.29V2.95c0-0.92,0.37-1.29,1.29-1.29h4.69V66.11z M214.99,60.86
		h15.93c15.47,0,25.87-12.52,25.87-26.98c0-14.55-10.4-26.98-25.87-26.98h-15.93V1.66h16.02c18.14,0,31.76,13.9,31.76,32.23
		s-13.63,32.23-31.76,32.23h-16.02V60.86z"/>
	<path class="st1" d="M276.87,2.95c0-1.01,0.28-1.29,1.29-1.29h3.41c1.01,0,1.29,0.37,1.29,1.29v61.87c0,1.01-0.28,1.29-1.29,1.29
		h-3.41c-1.01,0-1.29-0.28-1.29-1.29V2.95z"/>
	<path class="st1" d="M321.15,67.12c-8.56-0.28-16.3-2.58-22.83-7.09c-0.83-0.55-0.83-0.92-0.37-1.84l1.47-2.39
		c0.55-0.83,0.92-1.01,1.84-0.37c5.52,3.77,13.26,6.17,19.89,6.35V67.12z M321.43,6.08c-13.35,0.37-16.57,8.65-16.57,13.35
		c0,8.1,9.3,10.13,19.7,11.51c11.97,1.66,21.91,5.34,21.91,17.31c0,9.58-7.46,18.97-23.57,18.87v-5.34
		c9.02-0.18,17.68-3.5,17.68-13.35c0-8.01-7.09-10.68-19.7-12.52c-10.04-1.38-21.91-4.33-21.91-16.3c0-6.63,5.06-18.78,22.46-18.97
		V6.08z M323.18,0.64c8.93,0.28,15.1,3.04,21.54,7c0.83,0.55,0.74,1.01,0.37,1.84l-1.38,2.3c-0.46,0.83-0.92,1.1-1.84,0.55
		c-5.62-3.78-11.97-6.26-18.69-6.35V0.64z"/>
	<path class="st1" d="M366.64,66.11h-4.7c-0.92,0-1.29-0.28-1.29-1.29V2.95c0-0.92,0.37-1.29,1.29-1.29h4.7V66.11z M368.48,1.66
		h34.34c0.83,0,1.2,0.37,1.2,1.29v2.76c0,0.92-0.37,1.29-1.2,1.29h-34.34V1.66z M368.48,30.94h32.69c0.92,0,1.2,0.28,1.2,1.2v2.76
		c0,1.01-0.28,1.29-1.2,1.29h-32.69V30.94z M368.48,60.86h34.34c0.92,0,1.2,0.28,1.2,1.2v2.76c0,1.01-0.28,1.29-1.2,1.29h-34.34
		V60.86z"/>
	<path class="st1" d="M446.65,67.3c-18.05-0.55-32.13-15.65-32.13-33.42c0-17.77,14.18-32.87,32.13-33.42V5.8
		c-14.73,0.55-26.06,14.09-26.06,28.08c0,14,11.42,27.53,26.06,28.08V67.3z M448.4,61.96c14.73-0.64,25.96-14.09,25.96-28.08
		c0-13.99-11.23-27.35-25.96-28.08V0.46c17.86,0.55,32.04,15.65,32.04,33.42c0,17.77-14.09,32.87-32.04,33.42V61.96z"/>
	<path class="st0" d="M159.93,59.63c-9.69-0.43-17.26-12.06-17.26-25.75c0-13.69,7.62-25.32,17.26-25.75v4.11
		c-7.91,0.43-13.49,10.85-13.49,21.64c0,10.78,5.63,21.21,13.49,21.64V59.63z"/>
</g>
<path class="st1" d="M161.68,55.52c7.91-0.5,13.42-10.85,13.42-21.64c0-10.78-5.5-21.07-13.42-21.64V8.13
	c9.6,0.43,17.21,12.06,17.21,25.75c0,13.69-7.57,25.32-17.21,25.75V55.52z"/>
<path class="st1" d="M161.68,61.96c14.73-0.64,25.96-14.09,25.96-28.08c0-13.99-11.23-27.35-25.96-28.08V0.46
	c17.86,0.55,32.04,15.65,32.04,33.42c0,17.77-14.09,32.87-32.04,33.42V61.96z"/>
</svg>
